# xmcd CD database file
#
# Track frame offsets:
#	150
#	38602
#	58815
#	87560
#	110927
#	141495
#	184700
#	211327
#	238582
#	270977
#	300490
#	324537
#
# Disc length: 4670 seconds
#
# Revision: 2
# Processed by: cddbd v1.5.1PL2 Copyright (c) Steve Scherf et al.
# Submitted via: CDex 1.50beta8
#
DISCID=ae123c0c
DTITLE=Various Artist - Trip To The Andes
DYEAR=1996
DGENRE=Electronic
TTITLE0=T-Power/The Inti Raymi Remix
TTITLE1=Hidden Chipsters/New Day
TTITLE2=Mr.Psyche/The Drop
TTITLE3=Zone 12/Moody Pan Pipes
TTITLE4=Aphrodite/Q-Flutes
TTITLE5=Youth/Half Moon
TTITLE6=Trans-Global Underground/Cazares Mix
TTITLE7=Finitribe/Kusga Quilla Remix
TTITLE8=Pylon King/Mask of Inner Thought
TTITLE9=Altralasia/Orgo Mogo
TTITLE10=Fun-Da-Mental/Sufi Inca
TTITLE11=u-Ziq/Mo Sox Punchay
EXTD=YEAR: 1996
EXTT0=
EXTT1=
EXTT2=
EXTT3=
EXTT4=
EXTT5=
EXTT6=
EXTT7=
EXTT8=
EXTT9=
EXTT10=
EXTT11=
PLAYORDER=
